<svg width="20" height="20" viewBox="0 0 20 20" fill="none" xmlns="http://www.w3.org/2000/svg">
<path d="M8.25 14.385L16.245 6.39L15.36 5.505L8.25 12.615L4.6875 9.0525L3.8025 9.9375L8.25 14.385ZM2.01875 20C1.44375 20 0.96375 19.8075 0.57875 19.4225C0.192916 19.0367 0 18.5562 0 17.9813V2.01875C0 1.44375 0.192916 0.96375 0.57875 0.57875C0.96375 0.192916 1.44375 0 2.01875 0H17.9813C18.5562 0 19.0363 0.192916 19.4213 0.57875C19.8071 0.96375 20 1.44375 20 2.01875V17.9813C20 18.5562 19.8075 19.0363 19.4225 19.4213C19.0367 19.8071 18.5562 20 17.9813 20H2.01875Z" fill="#006CBC"/>
</svg>
