<svg width="35" height="35" viewBox="0 0 35 35" fill="none" xmlns="http://www.w3.org/2000/svg">
<circle cx="17.5" cy="17.5" r="17.5" fill="#489FDF"/>
<path d="M21.4375 11.375V9.625M13.5625 11.375V9.625M9.84375 14H25.1562M9.625 17.5C9.625 13.7874 9.625 12.8065 10.7782 11.6532C11.9315 10.5 13.7882 10.5 17.5 10.5C21.2126 10.5 23.0685 10.5 24.2217 11.6532C25.375 12.8065 25.375 13.7882 25.375 17.5C25.375 21.2126 25.375 23.0685 24.2217 24.2217C23.0685 25.375 21.2118 25.375 17.5 25.375C13.7874 25.375 11.9315 25.375 10.7782 24.2217C9.625 23.0685 9.625 21.2118 9.625 17.5Z" stroke="white" stroke-linecap="round" stroke-linejoin="round"/>
</svg>
