<svg width="18" height="22" viewBox="0 0 18 22" fill="none" xmlns="http://www.w3.org/2000/svg">
<path d="M4.42857 0V7.28958M13.5714 0V7.28958M3.85714 10.9344H7.28571M14.1429 10.9344H10.7143M3.85714 15.3081H7.28571M10.7143 15.3081H14.1429M2.14286 3.64479H15.8571C16.1602 3.64479 16.4509 3.79839 16.6653 4.0718C16.8796 4.34521 17 4.71604 17 5.1027V19.6819C17 20.0685 16.8796 20.4393 16.6653 20.7128C16.4509 20.9862 16.1602 21.1398 15.8571 21.1398H2.14286C1.83975 21.1398 1.54906 20.9862 1.33474 20.7128C1.12041 20.4393 1 20.0685 1 19.6819V5.1027C1 4.71604 1.12041 4.34521 1.33474 4.0718C1.54906 3.79839 1.83975 3.64479 2.14286 3.64479Z" stroke="#5C5C5C"/>
</svg>
