<svg width="24" height="24" viewBox="0 0 24 24" fill="none" xmlns="http://www.w3.org/2000/svg">
<path d="M17.625 3.25V0.75M6.375 3.25V0.75M1.0625 7H22.9375M0.75 12C0.75 6.69625 0.75 5.295 2.3975 3.6475C4.045 2 6.6975 2 12 2C17.3038 2 19.955 2 21.6025 3.6475C23.25 5.295 23.25 6.6975 23.25 12C23.25 17.3038 23.25 19.955 21.6025 21.6025C19.955 23.25 17.3025 23.25 12 23.25C6.69625 23.25 4.045 23.25 2.3975 21.6025C0.75 19.955 0.75 17.3025 0.75 12Z" stroke="white" stroke-width="1.2" stroke-linecap="round" stroke-linejoin="round"/>
</svg>
