<svg width="18" height="18" viewBox="0 0 18 18" fill="none" xmlns="http://www.w3.org/2000/svg">
<path d="M9 18C4.02353 18 0 13.9765 0 9C0 4.02353 4.02353 0 9 0C13.9765 0 18 4.02353 18 9C18 13.9765 13.9765 18 9 18ZM9 1.05882C4.60588 1.05882 1.05882 4.60588 1.05882 9C1.05882 13.3941 4.60588 16.9412 9 16.9412C13.3941 16.9412 16.9412 13.3941 16.9412 9C16.9412 4.60588 13.3941 1.05882 9 1.05882Z" fill="#5C5C5C"/>
<path d="M7.94182 12.9176L3.33594 8.31171L4.07711 7.57053L7.94182 11.4352L13.9242 5.45288L14.6653 6.19406L7.94182 12.9176Z" fill="#5C5C5C"/>
</svg>
