<svg width="7" height="12" viewBox="0 0 7 12" fill="none" xmlns="http://www.w3.org/2000/svg">
<path d="M1.47527 0.166762C1.59977 0.166339 1.72278 0.193815 1.83526 0.247172C1.94774 0.300529 2.04684 0.378412 2.12527 0.475095L6.15027 5.4751C6.27284 5.62421 6.33984 5.81124 6.33984 6.00426C6.33984 6.19728 6.27284 6.38432 6.15027 6.53343L1.9836 11.5334C1.84215 11.7036 1.6389 11.8106 1.41854 11.8309C1.19819 11.8513 0.978785 11.7832 0.808604 11.6418C0.638423 11.5003 0.531404 11.2971 0.511087 11.0767C0.49077 10.8563 0.558822 10.6369 0.700271 10.4668L4.42527 6.0001L0.825272 1.53343C0.72337 1.41111 0.658638 1.26216 0.638739 1.1042C0.618839 0.946242 0.644603 0.785889 0.712983 0.642116C0.781363 0.498343 0.889496 0.377166 1.02459 0.292924C1.15968 0.208683 1.31608 0.164901 1.47527 0.166762Z" fill="white"/>
</svg>
