<svg width="7" height="12" viewBox="0 0 7 12" fill="none" xmlns="http://www.w3.org/2000/svg">
<path d="M5.52473 11.8332C5.40023 11.8337 5.27723 11.8062 5.16474 11.7528C5.05226 11.6995 4.95316 11.6216 4.87473 11.5249L0.84973 6.5249C0.727161 6.37579 0.660156 6.18876 0.660156 5.99574C0.660156 5.80272 0.727161 5.61568 0.84973 5.46657L5.0164 0.466571C5.15785 0.29639 5.3611 0.18937 5.58146 0.169054C5.80181 0.148737 6.02122 0.216789 6.1914 0.358238C6.36158 0.499686 6.4686 0.702946 6.48891 0.923301C6.50923 1.14366 6.44118 1.36306 6.29973 1.53324L2.57473 5.9999L6.17473 10.4666C6.27663 10.5889 6.34136 10.7378 6.36126 10.8958C6.38116 11.0538 6.3554 11.2141 6.28702 11.3579C6.21864 11.5017 6.1105 11.6228 5.97541 11.7071C5.84032 11.7913 5.68392 11.8351 5.52473 11.8332Z" fill="white"/>
</svg>
