<svg width="30" height="30" viewBox="0 0 30 30" fill="none" xmlns="http://www.w3.org/2000/svg">
<g style="mix-blend-mode:color-burn">
<circle cx="15" cy="15" r="15" fill="#196638"/>
</g>
<path d="M18.375 9.75V8.25M11.625 9.75V8.25M8.4375 12H21.5625M8.25 15C8.25 11.8177 8.25 10.977 9.2385 9.9885C10.227 9 11.8185 9 15 9C18.1823 9 19.773 9 20.7615 9.9885C21.75 10.977 21.75 11.8185 21.75 15C21.75 18.1823 21.75 19.773 20.7615 20.7615C19.773 21.75 18.1815 21.75 15 21.75C11.8177 21.75 10.227 21.75 9.2385 20.7615C8.25 19.773 8.25 18.1815 8.25 15Z" stroke="white" stroke-linecap="round" stroke-linejoin="round"/>
</svg>
