<svg width="19" height="13" viewBox="0 0 19 13" fill="none" xmlns="http://www.w3.org/2000/svg">
<path d="M17.8333 5.45833H1.16667C0.59375 5.45833 0.125 5.92708 0.125 6.5C0.125 7.07292 0.59375 7.54167 1.16667 7.54167H17.8333C18.4062 7.54167 18.875 7.07292 18.875 6.5C18.875 5.92708 18.4062 5.45833 17.8333 5.45833ZM1.16667 12.75H11.5833C12.1562 12.75 12.625 12.2812 12.625 11.7083C12.625 11.1354 12.1562 10.6667 11.5833 10.6667H1.16667C0.59375 10.6667 0.125 11.1354 0.125 11.7083C0.125 12.2812 0.59375 12.75 1.16667 12.75ZM17.8333 0.25H1.16667C0.59375 0.25 0.125 0.71875 0.125 1.29167V1.30208C0.125 1.875 0.59375 2.34375 1.16667 2.34375H17.8333C18.4062 2.34375 18.875 1.875 18.875 1.30208V1.29167C18.875 0.71875 18.4062 0.25 17.8333 0.25Z" fill="#191919"/>
</svg>
