<svg width="25" height="25" viewBox="0 0 25 25" fill="none" xmlns="http://www.w3.org/2000/svg">
<path d="M6.25 8.59375C6.25 8.28596 6.31062 7.98119 6.42841 7.69684C6.54619 7.41248 6.71883 7.15411 6.93647 6.93647C7.15411 6.71883 7.41248 6.54619 7.69684 6.42841C7.98119 6.31062 8.28596 6.25 8.59375 6.25C8.90154 6.25 9.20631 6.31062 9.49066 6.42841C9.77502 6.54619 10.0334 6.71883 10.251 6.93647C10.4687 7.15411 10.6413 7.41248 10.7591 7.69684C10.8769 7.98119 10.9375 8.28596 10.9375 8.59375C10.9375 9.21535 10.6906 9.81149 10.251 10.251C9.81149 10.6906 9.21535 10.9375 8.59375 10.9375C7.97215 10.9375 7.37601 10.6906 6.93647 10.251C6.49693 9.81149 6.25 9.21535 6.25 8.59375ZM8.59375 4.6875C7.55775 4.6875 6.56418 5.09905 5.83161 5.83161C5.09905 6.56418 4.6875 7.55775 4.6875 8.59375C4.6875 9.62975 5.09905 10.6233 5.83161 11.3559C6.56418 12.0884 7.55775 12.5 8.59375 12.5C9.62975 12.5 10.6233 12.0884 11.3559 11.3559C12.0884 10.6233 12.5 9.62975 12.5 8.59375C12.5 7.55775 12.0884 6.56418 11.3559 5.83161C10.6233 5.09905 9.62975 4.6875 8.59375 4.6875ZM16.4062 9.375C16.4062 8.9606 16.5709 8.56317 16.8639 8.27015C17.1569 7.97712 17.5543 7.8125 17.9688 7.8125C18.3832 7.8125 18.7806 7.97712 19.0736 8.27015C19.3666 8.56317 19.5312 8.9606 19.5312 9.375C19.5312 9.7894 19.3666 10.1868 19.0736 10.4799C18.7806 10.7729 18.3832 10.9375 17.9688 10.9375C17.5543 10.9375 17.1569 10.7729 16.8639 10.4799C16.5709 10.1868 16.4062 9.7894 16.4062 9.375ZM17.9688 6.25C17.1399 6.25 16.3451 6.57924 15.759 7.16529C15.173 7.75134 14.8438 8.5462 14.8438 9.375C14.8438 10.2038 15.173 10.9987 15.759 11.5847C16.3451 12.1708 17.1399 12.5 17.9688 12.5C18.7976 12.5 19.5924 12.1708 20.1785 11.5847C20.7645 10.9987 21.0938 10.2038 21.0938 9.375C21.0938 8.5462 20.7645 7.75134 20.1785 7.16529C19.5924 6.57924 18.7976 6.25 17.9688 6.25ZM2.34375 16.4062C2.34375 15.7846 2.59068 15.1885 3.03022 14.749C3.46976 14.3094 4.0659 14.0625 4.6875 14.0625H12.5C13.1216 14.0625 13.7177 14.3094 14.1573 14.749C14.5968 15.1885 14.8438 15.7846 14.8438 16.4062V16.5813C14.8421 16.6528 14.8369 16.7243 14.8281 16.7953C14.7391 17.5528 14.4572 18.2748 14.0094 18.8922C13.1547 20.0719 11.5297 21.0938 8.59375 21.0938C5.65937 21.0938 4.03438 20.0719 3.17656 18.8922C2.72931 18.2746 2.44795 17.5527 2.35937 16.7953C2.3516 16.7242 2.34638 16.6528 2.34375 16.5813V16.5531V16.4062ZM3.90625 16.5469V16.5578L3.9125 16.6344C3.97301 17.1181 4.15467 17.5787 4.44062 17.9734C4.95 18.6734 6.05938 19.5312 8.59375 19.5312C11.1281 19.5312 12.2375 18.6734 12.7469 17.9734C13.0328 17.5787 13.2145 17.1181 13.275 16.6344C13.2778 16.6084 13.2799 16.5823 13.2812 16.5562V16.4062C13.2812 16.199 13.1989 16.0003 13.0524 15.8538C12.9059 15.7073 12.7072 15.625 12.5 15.625H4.6875C4.4803 15.625 4.28159 15.7073 4.13507 15.8538C3.98856 16.0003 3.90625 16.199 3.90625 16.4062V16.5469ZM17.9688 19.5312C17.05 19.5312 16.2969 19.3906 15.6875 19.1594C15.938 18.7005 16.1276 18.211 16.2516 17.7031C16.6703 17.8609 17.2266 17.9688 17.9688 17.9688C19.7172 17.9688 20.4344 17.3719 20.75 16.9281C20.9345 16.6693 21.0516 16.3686 21.0906 16.0531L21.0938 16.0094C21.0921 15.9069 21.0502 15.8091 20.9772 15.7372C20.9041 15.6653 20.8057 15.625 20.7031 15.625H16.3281C16.2128 15.0584 15.9726 14.5246 15.625 14.0625H20.7031C21.7812 14.0625 22.6562 14.9375 22.6562 16.0156V16.0422C22.6544 16.0991 22.6502 16.1559 22.6437 16.2125C22.5775 16.7981 22.3636 17.3573 22.0219 17.8375C21.3625 18.7609 20.1266 19.5312 17.9688 19.5312Z" fill="#191919"/>
</svg>
