<svg width="20" height="20" viewBox="0 0 20 20" fill="none" xmlns="http://www.w3.org/2000/svg">
<path d="M18.125 0.25H1.875C1.44402 0.25 1.0307 0.421205 0.725951 0.725951C0.421205 1.0307 0.25 1.44402 0.25 1.875V18.125C0.25 18.556 0.421205 18.9693 0.725951 19.274C1.0307 19.5788 1.44402 19.75 1.875 19.75H18.125C18.556 19.75 18.9693 19.5788 19.274 19.274C19.5788 18.9693 19.75 18.556 19.75 18.125V1.875C19.75 1.44402 19.5788 1.0307 19.274 0.725951C18.9693 0.421205 18.556 0.25 18.125 0.25ZM15.6875 10.8125H10.8125V15.6875C10.8125 15.903 10.7269 16.1097 10.5745 16.262C10.4222 16.4144 10.2155 16.5 10 16.5C9.78451 16.5 9.57785 16.4144 9.42548 16.262C9.2731 16.1097 9.1875 15.903 9.1875 15.6875V10.8125H4.3125C4.09701 10.8125 3.89035 10.7269 3.73798 10.5745C3.5856 10.4222 3.5 10.2155 3.5 10C3.5 9.78451 3.5856 9.57785 3.73798 9.42548C3.89035 9.2731 4.09701 9.1875 4.3125 9.1875H9.1875V4.3125C9.1875 4.09701 9.2731 3.89035 9.42548 3.73798C9.57785 3.5856 9.78451 3.5 10 3.5C10.2155 3.5 10.4222 3.5856 10.5745 3.73798C10.7269 3.89035 10.8125 4.09701 10.8125 4.3125V9.1875H15.6875C15.903 9.1875 16.1097 9.2731 16.262 9.42548C16.4144 9.57785 16.5 9.78451 16.5 10C16.5 10.2155 16.4144 10.4222 16.262 10.5745C16.1097 10.7269 15.903 10.8125 15.6875 10.8125Z" fill="#489FDF"/>
</svg>
