<svg width="5" height="10" viewBox="0 0 5 10" fill="none" xmlns="http://www.w3.org/2000/svg">
<path d="M0.780218 0.333312C0.879814 0.332973 0.978221 0.354954 1.06821 0.39764C1.15819 0.440326 1.23747 0.502632 1.30022 0.579979L4.52022 4.57998C4.61827 4.69927 4.67188 4.8489 4.67188 5.00331C4.67188 5.15773 4.61827 5.30736 4.52022 5.42665L1.18688 9.42665C1.07372 9.56279 0.911117 9.64841 0.734833 9.66466C0.558548 9.68091 0.383028 9.62647 0.246883 9.51331C0.110739 9.40015 0.0251232 9.23755 0.0088697 9.06126C-0.00738328 8.88498 0.0470577 8.70946 0.160217 8.57331L3.14022 4.99998L0.260218 1.42664C0.178695 1.32879 0.126911 1.20963 0.110991 1.08326C0.0950716 0.956896 0.115683 0.828614 0.170387 0.713595C0.225091 0.598576 0.311597 0.501636 0.419671 0.434242C0.527744 0.366849 0.652861 0.331824 0.780218 0.333312Z" fill="#5A5A5A"/>
</svg>
