<svg width="14" height="16" viewBox="0 0 14 16" fill="none" xmlns="http://www.w3.org/2000/svg">
<path d="M2.98009 15.3333C2.57065 15.3333 2.2214 15.1891 1.93234 14.9006C1.6439 14.6122 1.49967 14.2629 1.49967 13.8529V2.49994H0.583008V1.58327H4.24967V0.877441H9.74967V1.58327H13.4163V2.49994H12.4997V13.8529C12.4997 14.2745 12.3585 14.6265 12.0762 14.9089C11.7932 15.1918 11.4409 15.3333 11.0193 15.3333H2.98009ZM11.583 2.49994H2.41634V13.8529C2.41634 14.0172 2.4692 14.1523 2.57492 14.258C2.68065 14.3637 2.8157 14.4166 2.98009 14.4166H11.0193C11.1598 14.4166 11.2891 14.3579 11.407 14.2406C11.5243 14.1227 11.583 13.9934 11.583 13.8529V2.49994ZM4.99034 12.5833H5.90701V4.33327H4.99034V12.5833ZM8.09234 12.5833H9.00901V4.33327H8.09234V12.5833Z" fill="white"/>
</svg>
