<svg width="5" height="10" viewBox="0 0 5 10" fill="none" xmlns="http://www.w3.org/2000/svg">
<path d="M0.779973 0.333312C0.87957 0.332973 0.977977 0.354954 1.06796 0.39764C1.15795 0.440326 1.23723 0.502632 1.29997 0.579979L4.51997 4.57998C4.61803 4.69927 4.67163 4.8489 4.67163 5.00331C4.67163 5.15773 4.61803 5.30736 4.51997 5.42665L1.18664 9.42665C1.07348 9.56279 0.910873 9.64841 0.734589 9.66466C0.558304 9.68091 0.382783 9.62647 0.246639 9.51331C0.110495 9.40015 0.024879 9.23755 0.00862556 9.06126C-0.00762742 8.88498 0.0468136 8.70946 0.159973 8.57331L3.13997 4.99998L0.259974 1.42664C0.178451 1.32879 0.126667 1.20963 0.110747 1.08326C0.0948275 0.956896 0.115439 0.828614 0.170142 0.713595C0.224847 0.598576 0.311353 0.501636 0.419427 0.434242C0.5275 0.366849 0.652617 0.331824 0.779973 0.333312Z" fill="#D1D1D1"/>
</svg>
